<svg viewBox="0 0 300 300" xmlns="http://www.w3.org/2000/svg"><path d="M100,50 L75,80 L75,250 L225,250 L225,80 L200,50 L170,70 L150,60 L130,70 Z" fill="#121212"/><path d="M130,70 L150,90 L170,70" stroke="#2a2a2a" stroke-width="2" fill="none"/><path d="M130,120 C135,115 140,118 145,110 C150,105 155,108 160,100 M140,130 C145,125 150,128 155,120 C160,115 165,118 170,110" stroke="#d4a064" stroke-width="1" opacity="0.4"/><g><text x="150" y="135" font-size="17" font-weight="bold" text-anchor="middle" fill="white" style="filter: drop-shadow(0px 2px 2px rgba(0,0,0,0.5));">JUST LET IT</text><text x="150" y="160" font-size="17" font-weight="bold" text-anchor="middle" fill="white" style="filter: drop-shadow(0px 2px 2px rgba(0,0,0,0.5));">COOL DOWN</text><text x="150" y="185" font-size="18" font-weight="bold" text-anchor="middle" fill="#d4a064" style="filter: drop-shadow(0px 2px 2px rgba(0,0,0,0.5));">FOR A BIT</text></g><g><path d="M130,205 L170,205 L165,230 L135,230 Z" fill="white"/><path d="M130,205 L170,205 L165,230 L135,230 Z" stroke="#4a7bdf" stroke-width="0.5"/><path d="M145,195 C145,190 155,190 155,195 L155,205 L145,205 Z" fill="white" stroke="#4a7bdf" stroke-width="0.5"/><text x="137" y="217" font-size="6" font-weight="bold" fill="#4a7bdf">01</text><text x="148" y="217" font-size="6" font-weight="bold" fill="#4a7bdf">10</text><text x="159" y="217" font-size="6" font-weight="bold" fill="#4a7bdf">01</text><path d="M140,185 C143,183 147,187 150,183" stroke="white" stroke-width="1" opacity="0.8"/><path d="M150,185 C153,183 157,187 160,183" stroke="white" stroke-width="1" opacity="0.8"/><path d="M137,210 L163,210" stroke="#d4a064" stroke-width="2"/></g></svg> 
