<svg viewBox="0 0 300 300" xmlns="http://www.w3.org/2000/svg"><path d="M100,50 L75,80 L75,250 L225,250 L225,80 L200,50 L170,70 L150,60 L130,70 Z" fill="#121212"/><path d="M130,70 L150,90 L170,70" stroke="#2a2a2a" stroke-width="2" fill="none"/><path d="M120,120 L180,120 M120,130 L180,130 M120,140 L150,140 M170,140 L180,140 M120,150 L130,150 M150,150 L180,150" stroke="#4a7bdf" stroke-width="1" stroke-opacity="0.3"/><circle cx="140" cy="140" r="2" fill="#4a7bdf" fill-opacity="0.3"/><circle cx="160" cy="140" r="2" fill="#4a7bdf" fill-opacity="0.3"/><circle cx="140" cy="150" r="2" fill="#4a7bdf" fill-opacity="0.3"/><text x="150" y="130" font-size="18" font-weight="bold" text-anchor="middle" fill="white" style="text-shadow: 0 0 5px #4a7bdf;">I DON'T BYTE</text><text x="150" y="155" font-size="16" font-weight="bold" text-anchor="middle" fill="#4a7bdf" style="text-shadow: 0 0 3px #ffffff;">...HARD</text><g><path d="M115,190 L185,190 L190,225 L110,225 Z" fill="#1a1a1a" stroke="white" stroke-width="1"/><rect x="115" y="175" width="70" height="15" rx="2" fill="#1a1a1a" stroke="white" stroke-width="1"/><rect x="120" y="195" width="60" height="25" fill="#4a7bdf" fill-opacity="0.7"/><text x="125" y="205" font-size="8" fill="white">10101</text><text x="125" y="215" font-size="8" fill="white">01001</text><text x="155" y="205" font-size="8" fill="white">11000</text><text x="155" y="215" font-size="8" fill="white">10110</text><circle cx="150" cy="207" r="8" fill="#121212" stroke="white" stroke-width="1"/><text x="150" y="210" font-size="10" font-weight="bold" text-anchor="middle" fill="white">B</text></g></svg> 
