<svg viewBox="0 0 300 300" xmlns="http://www.w3.org/2000/svg"><path d="M100,50 L75,80 L75,250 L225,250 L225,80 L200,50 L170,70 L150,60 L130,70 Z" fill="#121212"/><path d="M130,70 L150,90 L170,70" stroke="#2a2a2a" stroke-width="2" fill="none"/><text x="150" y="130" font-size="16" font-weight="bold" text-anchor="middle" fill="white">THIS IS MY BREW</text><text x="150" y="155" font-size="16" font-weight="bold" text-anchor="middle" fill="#4a7bdf">THIS IS MY PYTHON</text><path d="M120,180 C130,175 140,185 150,180 C160,175 170,185 180,180" stroke="#4a7bdf" stroke-width="3" fill="none"/><path d="M180,180 L185,185" stroke="#4a7bdf" stroke-width="3" fill="none"/><circle cx="185" cy="190" r="3" fill="#4a7bdf"/><path d="M130,210 L150,210 L150,225 C150,230 130,230 130,225 Z" fill="white"/><path d="M152,215 C160,215 160,225 152,225" stroke="white" stroke-width="2" fill="none"/></svg> 
